<?xml version="1.0"?>
<svg xmlns="http://www.w3.org/2000/svg" viewBox="0 0 512 512" width="512" height="512"><g id="outline"><path d="M480,120a32,32,0,1,0-32,32A32.036,32.036,0,0,0,480,120Zm-32,16a16,16,0,1,1,16-16A16.019,16.019,0,0,1,448,136Z"/><path d="M452,408a28,28,0,1,0,28,28A28.032,28.032,0,0,0,452,408Zm0,40a12,12,0,1,1,12-12A12.013,12.013,0,0,1,452,448Z"/><path d="M200,496a31.93,31.93,0,0,0,24.309-11.225,39.988,39.988,0,1,0-21.046-52.61A32,32,0,1,0,200,496Zm40-72a24,24,0,1,1-8.643,46.4,31.985,31.985,0,0,0-13.064-32.629A24,24,0,0,1,240,424Zm-40,24a16,16,0,1,1-16,16A16.019,16.019,0,0,1,200,448Z"/><path d="M312,88a32,32,0,1,0-32-32A32.036,32.036,0,0,0,312,88Zm0-48a16,16,0,1,1-16,16A16.019,16.019,0,0,1,312,40Z"/><path d="M80,16A56,56,0,1,0,96.373,125.557a31.987,31.987,0,1,0,39.469-49.343c.1-1.4.158-2.811.158-4.214A56.063,56.063,0,0,0,80,16Zm8,88a31.949,31.949,0,0,0,.786,7.024A40,40,0,1,1,120,72,32.036,32.036,0,0,0,88,104Zm48,0a16,16,0,1,1-16-16A16.019,16.019,0,0,1,136,104Z"/><path d="M464,219.1v-2.185a27.481,27.481,0,0,0-28.6-27.46l-12.1.507a28.207,28.207,0,0,0-43.442-20.728l-45.96,26.9c9.6-9.432,19.3-19.1,27.7-27.749h0A26.374,26.374,0,0,0,325.5,130l-56.046,48.19,2.124-10.623,10.3-17.157a35.913,35.913,0,0,0-9.271-47.323l-.733-.549a22.082,22.082,0,0,0-30.637,4.187L226.242,126.2a29.833,29.833,0,0,0-21.668-9.265h-.67a23.852,23.852,0,0,0-22.988,17.1l-18.188,60.628-90.2-6.014a8,8,0,0,0-8.514,7.45l-8,120a8,8,0,0,0,7.483,8.517l10.374.648,55.383,86.734a8,8,0,0,0,10.961,2.491l53.2-33.02a97.236,97.236,0,0,0,58.047-5.569l68.443,44.22.15.094a25.47,25.47,0,0,0,28.63-42.068L336.24,368.82c25.307,7.45,57.375,16.895,76.516,22.554a25.071,25.071,0,0,0,7.117,1.039,25.021,25.021,0,0,0,24.174-18.978l.1-.42a24.347,24.347,0,0,0-15.6-28.992l-14.915-5.252a24.492,24.492,0,0,0,10.373-20.047c0-.7-.037-1.393-.1-2.084h12.6A27.482,27.482,0,0,0,439.99,261.9l-3.563-.453a24.285,24.285,0,0,0-2.1-14.478l5.064-.533A27.422,27.422,0,0,0,464,219.1ZM230.066,170.518l3.794-17.071a30.007,30.007,0,0,0,.331-11.334l19.717-25.633a6.021,6.021,0,0,1,8.358-1.14l.732.548a19.951,19.951,0,0,1,5.149,26.29L257.14,160.523a8.016,8.016,0,0,0-.985,2.547l-6.412,32.064-15.558,13.377A59.924,59.924,0,0,1,230.066,170.518ZM72.517,309.156l6.933-104,78.935,5.263-13.428,53.71L80.737,309.67Zm266.569,81.8a9.469,9.469,0,0,1,1.014,14.272,9.44,9.44,0,0,1-11.6,1.407l-60.208-38.9,6.212-3.106c3.1-.523,12.056-2.034,24.065-4.058Zm-68.417-41.9a8.022,8.022,0,0,0-2.247.733l-18.5,9.249a81.23,81.23,0,0,1-55.986,6.146,7.993,7.993,0,0,0-6.159.964l-49.289,30.594-47.6-74.552c.039-.062.083-.121.12-.184l65.621-46.536a8,8,0,0,0,3.133-4.585L175.6,207.53a7.966,7.966,0,0,0,1.322-3.9c.014-.209.012-.415.01-.621l19.312-64.373a7.95,7.95,0,0,1,7.662-5.7h.67a14,14,0,0,1,13.667,17.038l-3.794,17.07a75.953,75.953,0,0,0,10.9,58.33,8,8,0,0,0,11.872,1.629l98.711-84.874a10.374,10.374,0,0,1,14.2,15.1h0c-29.459,30.323-75.155,73.455-75.613,73.887a8,8,0,0,0,9.529,12.724l104.088-60.909c.137-.081.271-.164.4-.252a12.2,12.2,0,0,1,13.637,20.228c-34.343,23.542-109.4,66.657-110.149,67.09a8,8,0,0,0,6.4,14.565l110.215-34.9,5.1-.536a8.66,8.66,0,0,1,2.615.951,8.595,8.595,0,0,1,2.82,12.486,8,8,0,0,0-.765.943,8.551,8.551,0,0,1-3.524,2.284c-37.9,12.781-97.142,35.443-97.735,35.671a8,8,0,0,0,3.548,15.441l78.019-6.743a8.567,8.567,0,0,1,2.155,16.984C365.215,333.1,271.61,348.893,270.669,349.051Zm152.57,10.064a8.412,8.412,0,0,1,5.4,10.006l-.107.421a8.983,8.983,0,0,1-4.282,5.681,8.831,8.831,0,0,1-6.953.807c-19.151-5.661-51.235-15.111-76.549-22.563,15.721-2.647,31.721-5.337,44.987-7.562Zm14.73-81.347a11.482,11.482,0,0,1-1.451,22.872H416.1l-.035-.035a24.625,24.625,0,0,0-18.731-6.379l-19.611,1.695c14.478-5.286,29.59-10.686,42.269-14.962a24.3,24.3,0,0,0,7.926-4.472ZM413.7,233.049a24.619,24.619,0,0,0-8.251.868l-26.1,2.748c11.9-7.382,23.1-14.545,31.872-20.557a27.975,27.975,0,0,0,8.948-10l15.9-.667A11.484,11.484,0,0,1,448,216.917V219.1a11.457,11.457,0,0,1-10.28,11.418Z"/></g></svg>
